<svg width="560" height="686" viewBox="0 0 560 686" fill="none" xmlns="http://www.w3.org/2000/svg">
<g clip-path="url(#clip0)">
<path opacity="0.16" d="M270.345 540.652C121.037 540.652 -0.000183105 419.614 -0.000183105 270.307C-0.000183105 121 121.037 -0.0378418 270.345 -0.0378418C419.652 -0.0378418 540.689 121 540.689 270.307C540.689 419.614 419.652 540.652 270.345 540.652Z" fill="#8F68FB"/>
<path fill-rule="evenodd" clip-rule="evenodd" d="M523.901 91.4133L339.082 84.9486C318.192 84.2178 300.666 100.588 299.936 121.513L283.879 582.093C283.15 603.018 299.493 620.573 320.383 621.304L505.202 627.769C526.092 628.499 543.619 612.129 544.348 591.204L560.405 130.624C561.135 109.699 544.791 92.144 523.901 91.4133Z" fill="#F2F2F2"/>
<path fill-rule="evenodd" clip-rule="evenodd" d="M494.767 106.058C494.496 113.824 488.1 119.93 480.392 119.88L479.978 119.871L380.955 116.408C373.201 116.137 367.106 109.73 367.156 102.01L367.164 101.595L367.311 97.3838L338.244 96.3671C324.317 95.88 312.633 106.794 312.147 120.744L296.031 583.006C295.544 596.956 306.44 608.659 320.367 609.146L506.819 615.668C520.746 616.155 532.43 605.242 532.916 591.292L549.032 129.03C549.519 115.08 538.623 103.376 524.696 102.889L494.913 101.847L494.767 106.058Z" fill="#240E6A"/>
<path fill-rule="evenodd" clip-rule="evenodd" d="M122.809 264.653C133.689 272.268 146.461 299.203 140.191 304.786C137.691 307.012 130.636 308.332 122.483 307.75L140.5 333.649L117.375 345.533L106.45 304.061C99.3585 301.093 93.1035 296.203 89.9635 288.736C80.9161 267.22 111.929 257.038 122.809 264.653Z" fill="#B28B67"/>
<path fill-rule="evenodd" clip-rule="evenodd" d="M127.367 268.233C126.451 266.992 125.13 265.77 124.029 264.717C122.609 263.359 120.973 262.318 119.292 261.408C116.127 259.695 112.728 258.427 109.306 257.682C103.056 256.322 96.3767 257.118 91.1916 260.639C88.5736 262.417 86.4058 264.882 85.0014 267.852C83.7326 270.536 82.9279 273.941 80.3159 275.498C77.4737 277.192 73.4636 275.964 70.2945 275.562C66.7215 275.109 63.2281 275.236 59.8652 276.315C54.2317 278.124 50.2425 282.403 48.8306 288.54C47.3283 295.07 47.9444 303.199 53.5081 307.97C54.5424 308.857 55.6206 309.498 56.8773 309.844C58.0297 310.16 59.6209 310.31 60.5228 311.298C61.4812 312.349 61.2662 314.451 61.4318 315.759C61.669 317.632 62.0467 319.533 63.081 321.17C64.7797 323.859 67.9075 325.652 70.7091 326.553C73.5602 327.471 76.441 327.356 79.1854 326.576C81.0178 326.055 82.8112 325.365 84.4389 324.371C85.247 323.877 85.869 323.262 86.588 322.657C87.2871 322.069 87.8361 322.053 88.7279 322.145C92.8708 322.574 96.6195 321.637 100.066 319.485C102.976 317.669 106.102 315.128 107.521 311.758C109.097 308.015 107.419 304.832 105.038 301.734C105.898 301.723 107.903 300.96 106.079 300.178C105.356 299.868 104.396 300.084 103.659 300.062C102.8 300.037 101.877 299.908 101.05 299.572C97.7132 298.215 97.3313 292.158 99.5637 289.981C102.88 286.745 106.59 291.893 110.128 291.9C112.162 291.904 113.274 289.898 113.896 288.114C114.728 285.725 114.79 283.095 114.682 280.506C114.593 278.374 114.438 276.246 114.369 274.114C114.336 273.119 114.482 270.184 113.374 269.609C115.903 267.597 119.635 267.164 122.84 267.464C124.165 267.588 125.285 267.9 126.39 268.753C126.626 268.936 127.239 269.526 127.567 269.395C128.177 269.15 127.597 268.544 127.367 268.233Z" fill="#191847"/>
<path fill-rule="evenodd" clip-rule="evenodd" d="M119.286 425.95C121.235 452.767 246.782 531.719 247.514 533.935C247.84 534.919 234.814 566.041 208.436 627.301L219.411 631.601C259.87 566.722 279.06 530.826 276.982 523.913C274.007 514.016 241.537 481.456 179.572 426.235L119.286 425.95Z" fill="#B28B67"/>
<path fill-rule="evenodd" clip-rule="evenodd" d="M119.286 425.95C121.235 452.767 246.782 531.719 247.514 533.935C247.84 534.919 234.814 566.041 208.436 627.301L219.411 631.601C259.87 566.722 279.06 530.826 276.982 523.913C274.007 514.016 241.537 481.456 179.572 426.235L119.286 425.95Z" fill="black" fill-opacity="0.1"/>
<path fill-rule="evenodd" clip-rule="evenodd" d="M211.325 613.467L229.242 620.043C267.025 577.062 281.835 541.6 279.134 523.531C277.334 511.485 244.976 478.98 182.06 426.016L118.001 426.016C120.187 488.12 236.553 534.171 238.11 536.817C239.666 539.464 224.349 565.384 211.325 613.467Z" fill="#2F3676"/>
<path fill-rule="evenodd" clip-rule="evenodd" d="M204.393 625.185C202.154 627.824 200.761 629.902 200.213 631.42C199.547 633.265 198.881 636.07 198.214 639.834C200.339 640.614 219.436 647.626 255.506 660.868C258.784 656.456 258.89 653.464 255.825 651.891C252.76 650.318 250.224 648.982 248.217 647.885L225.904 626.149C225.475 625.731 224.79 625.742 224.376 626.175C224.369 626.182 224.362 626.19 224.355 626.197L221.134 629.752C217.661 630.057 214.996 629.869 213.139 629.188C211.631 628.634 209.769 627.255 207.554 625.052L207.554 625.052C206.704 624.207 205.336 624.215 204.497 625.071C204.461 625.108 204.426 625.146 204.393 625.185Z" fill="#E4E4E4"/>
<path fill-rule="evenodd" clip-rule="evenodd" d="M133.721 425.95L77.7935 561.319L22.8252 675.762H35.794L177.682 425.95H133.721Z" fill="#B28B67"/>
<path fill-rule="evenodd" clip-rule="evenodd" d="M22.0496 670.479C20.8404 673.734 20.2358 676.169 20.2358 677.784C20.2358 679.749 20.5605 682.617 21.2099 686.387C23.4709 686.387 43.7909 686.387 82.1698 686.387C83.754 681.107 82.8395 678.256 79.4265 677.835C76.0134 677.414 73.1782 677.034 70.9207 676.695L42.5871 663.96C42.0419 663.715 41.4029 663.962 41.1598 664.511C41.1557 664.521 41.1517 664.53 41.1478 664.54L39.3265 668.994C36.1669 670.48 33.5994 671.223 31.624 671.223C30.0191 671.223 27.8026 670.57 24.9746 669.263L24.9747 669.263C23.8894 668.761 22.6063 669.241 22.1088 670.336C22.0874 670.383 22.0676 670.431 22.0496 670.479Z" fill="#E4E4E4"/>
<path fill-rule="evenodd" clip-rule="evenodd" d="M27.7891 651.988L56.6059 657.437C78.887 624.41 172.134 488.991 182.358 425.95H118.205C84.0631 471.522 49.0275 618.415 27.7891 651.988Z" fill="#5C63AB"/>
<path fill-rule="evenodd" clip-rule="evenodd" d="M82.1231 433.28L104.064 427.851C101.399 475.262 99.8597 500.449 99.446 503.413C98.5152 510.082 105.93 518.016 109.352 522.422C102.994 527.446 100.807 515.314 92.8273 521.814C85.5437 527.747 81.0052 536.317 70.0279 532.798C68.6783 532.365 66.7199 529.95 69.2893 527.031C75.6906 519.759 84.5083 507.632 85.2526 504.183C86.2676 499.48 85.2244 475.846 82.1231 433.28ZM210.378 400.095L249.95 416.419C259.633 416.602 267.973 417.762 274.968 419.9C276.733 420.858 279.131 423.094 273.052 424.133C266.973 425.172 260.626 426.541 260.309 428.797C259.992 431.053 264.207 432.595 263.226 435.778C262.572 437.901 256.19 434.598 244.082 425.87L207.53 420.371L210.378 400.095Z" fill="#B28B67"/>
<path fill-rule="evenodd" clip-rule="evenodd" d="M121.466 324.896L130.153 321.045C171.052 341.863 198.778 394.653 247.406 414.076L240.536 428.975C166.744 438.065 132.048 373.895 121.466 324.896Z" fill="#E87613"/>
<path fill-rule="evenodd" clip-rule="evenodd" d="M110.301 449.68C146.683 440.522 173.445 433.786 190.586 429.471C194.255 428.548 192.246 423.386 191.051 420.827C177.255 391.292 145.09 363.808 134.165 319.573L110.103 321.744C98.6125 357.596 101.424 397.469 110.301 449.68Z" fill="#DDE3E9"/>
<path fill-rule="evenodd" clip-rule="evenodd" d="M108.386 322.17C109.168 321.973 109.897 321.842 110.572 321.777L117.93 320.368C156.271 386.144 173.709 432.078 170.245 458.17L107.048 474.078C105.476 483.814 103.721 492.115 101.782 498.98L84.5621 503.314C69.9057 450.941 71.2999 403.007 88.7449 359.513C85.1411 359.387 81.916 357.786 79.0705 354.711C66.8056 341.456 67.7706 332.216 76.1295 327.155C84.4883 322.093 93.9724 325.798 108.386 322.17Z" fill="#FF9B21"/>
<path fill-rule="evenodd" clip-rule="evenodd" d="M130.523 468.181L107.071 474.085C108.905 462.728 110.49 449.417 111.825 434.153C117.949 450.4 124.182 461.744 130.523 468.181Z" fill="black" fill-opacity="0.1"/>
<mask id="mask0" mask-type="alpha" maskUnits="userSpaceOnUse" x="25" y="-31" width="525" height="842">
<path d="M320.367 609.146L506.819 615.668C520.746 616.155 532.43 605.242 532.916 591.292L549.032 129.03C549.519 115.08 538.623 103.376 524.696 102.889L480.428 -30.9342H25.0014V810.492H225.068C286.817 676.199 318.583 609.084 320.367 609.146Z" fill="white"/>
</mask>
<g mask="url(#mask0)">
<path fill-rule="evenodd" clip-rule="evenodd" d="M251.232 166.265C257.137 187.231 291.774 221.394 303.721 214.606C308.485 211.898 314.291 201.625 317.756 188.634L347.993 230.407L378.657 200.746L320.652 161.739C319.875 149.133 315.692 136.808 305.876 127.96C277.59 102.466 245.328 145.3 251.232 166.265Z" fill="#B28B67"/>
<path fill-rule="evenodd" clip-rule="evenodd" d="M260.672 129.589C244.217 145.479 244.521 158.28 249.988 164.585C258.908 159.711 271.949 148.558 289.535 131.33L290.768 132.607L276.658 148.702L281.499 158.833C285.275 154.601 290.874 154.58 296.798 156.071C297.135 154.415 297.93 152.838 299.219 151.593C302.75 148.184 308.649 148.564 311.778 151.805C315.033 155.175 315.956 159.321 314.748 162.625C318.256 163.825 321.142 164.368 322.877 163.298C327.864 157.403 321.877 136.674 310.999 125.41C299.093 113.081 278.979 111.909 260.672 129.589Z" fill="#191847"/>
<path fill-rule="evenodd" clip-rule="evenodd" d="M499.42 316.867L462.916 556.148L439.027 731.868L405.652 738.974L404.463 337.084L499.42 316.867Z" fill="#1F28CF"/>
<path fill-rule="evenodd" clip-rule="evenodd" d="M520.059 312.473C537.094 388.281 558.152 490.745 561.272 495.032C563.352 497.89 614.845 524.538 715.75 574.976L704.769 607.962C588.253 563.542 526.439 537.478 519.328 529.768C508.662 518.204 443.338 404.802 407.37 336.465L520.059 312.473Z" fill="#2B44FF"/>
<path fill-rule="evenodd" clip-rule="evenodd" d="M520.188 275.893L489.139 296.263C548.598 345.827 580.325 372.009 584.319 374.81C593.305 381.113 594.449 398.87 595.863 407.893C608.971 405.832 596.97 389.696 613.652 387.323C628.878 385.158 644.171 389.234 652.277 372.102C653.274 369.995 652.591 364.95 646.236 364.794C630.402 364.406 606.078 361.522 601.137 358.58C594.398 354.567 567.415 327.005 520.188 275.893ZM329.13 391.917L313.631 460.542C304.75 473.767 298.44 486.095 294.703 497.527C294.319 500.802 295.042 506.128 302.157 498.906C309.271 491.684 317.078 484.408 320.388 486.093C323.697 487.778 321.784 494.903 326.956 496.561C330.404 497.666 332.009 485.972 331.771 461.478L358.872 407.058L329.13 391.917Z" fill="#B28B67"/>
<path fill-rule="evenodd" clip-rule="evenodd" d="M347.018 202.777L332.705 208.945C346.456 278.785 340.383 354.322 314.487 435.554L389.143 459.138C402.587 358.714 393.511 270.03 347.018 202.777Z" fill="#191847"/>
<path fill-rule="evenodd" clip-rule="evenodd" d="M508.144 328.172L393.448 402.78C378.118 320.865 355.81 257.32 326.521 212.145L357.776 184.483C413.329 210.541 455.926 259.405 508.144 328.172Z" fill="#DDE3E9"/>
<path fill-rule="evenodd" clip-rule="evenodd" d="M356.237 185.484C353.595 187.335 349.587 190.181 344.215 194.02L351.349 223.357C369.356 253.071 402.263 315.152 450.07 409.601L525.255 360.693C529.012 366.92 532.679 373.288 536.254 379.795L592.158 343.431C522.611 254.497 444.737 201.35 358.536 183.989L358.526 184.031L358.495 184.015L356.237 185.484Z" fill="#2F3676"/>
<path fill-rule="evenodd" clip-rule="evenodd" d="M504.598 374.966L525.616 361.292C508.803 333.342 490.164 308.208 469.697 285.889C492.204 325.298 503.837 354.99 504.598 374.966Z" fill="black" fill-opacity="0.1"/>
<path fill-rule="evenodd" clip-rule="evenodd" d="M478.954 325.975L430.703 332.851L441.88 350.092L478.954 325.975Z" fill="white" fill-opacity="0.2"/>
</g>
</g>
<defs>
<clipPath id="clip0">
<rect width="560" height="686" fill="white" transform="matrix(-1 0 0 1 560 0)"/>
</clipPath>
</defs>
</svg>
