<svg width="120" height="154" viewBox="0 0 120 154" fill="none" xmlns="http://www.w3.org/2000/svg">
<g clip-path="url(#clip0)">
<path fill-rule="evenodd" clip-rule="evenodd" d="M67.4783 7.16273C69.6927 11.2705 69.4296 21.6904 66.5676 22.4245C65.4263 22.7173 62.9951 22.0002 60.5206 20.5158L62.0736 31.4519H52.9023L56.0594 16.8057C54.2987 14.7488 53.107 12.228 53.3062 9.40335C53.88 1.26446 65.2639 3.05491 67.4783 7.16273Z" fill="#EAC7A8"/>
<path fill-rule="evenodd" clip-rule="evenodd" d="M68.3438 9.00716C68.2529 8.47471 68.0309 7.88342 67.8518 7.37966C67.6208 6.73025 67.2713 6.14473 66.8866 5.5929C66.1625 4.55397 65.2938 3.61578 64.3346 2.83711C62.5826 1.41481 60.3524 0.594414 58.1592 0.860837C57.0519 0.995345 55.977 1.41571 55.0621 2.1154C54.2355 2.74757 53.4403 3.67818 52.37 3.74504C51.2053 3.81774 50.1377 2.79468 49.2037 2.16283C48.1506 1.45051 47.0302 0.93146 45.7993 0.729699C43.7374 0.39181 41.8003 1.08515 40.3792 2.76882C38.867 4.56051 37.7677 7.18801 38.7608 9.56198C38.9454 10.0033 39.1829 10.3753 39.5237 10.6837C39.8363 10.9664 40.3137 11.2672 40.4404 11.719C40.575 12.1993 40.1729 12.8188 40.017 13.2521C39.7936 13.873 39.6102 14.5246 39.6754 15.1994C39.7825 16.3076 40.4823 17.3656 41.2212 18.0939C41.9731 18.8352 42.8986 19.2602 43.887 19.4561C44.547 19.5869 45.2216 19.6591 45.8924 19.61C46.2254 19.5856 46.5192 19.4936 46.8419 19.4204C47.1556 19.3492 47.331 19.4321 47.5972 19.6033C48.8338 20.399 50.1634 20.7068 51.5913 20.5885C52.7964 20.4886 54.1854 20.1979 55.1685 19.3762C56.2602 18.4635 56.2385 17.205 55.9816 15.8604C56.2538 15.9946 57.0068 16.0778 56.5568 15.5426C56.3786 15.3307 56.0418 15.2445 55.8131 15.1198C55.5467 14.9747 55.2763 14.7871 55.0695 14.5504C54.2345 13.5944 55.0779 11.649 56.1274 11.3284C57.6867 10.8521 58.0358 13.0468 59.1489 13.6145C59.7889 13.9409 60.4584 13.4948 60.938 13.0392C61.5803 12.4289 62.018 11.6205 62.396 10.7977C62.7073 10.1202 62.997 9.43317 63.3143 8.75901C63.4625 8.44419 63.9755 7.55421 63.7179 7.19824C64.8347 6.97659 66.0787 7.43849 67.0406 8.04423C67.4381 8.29465 67.7412 8.57073 67.9533 9.0128C67.9987 9.10753 68.0976 9.38911 68.2218 9.40065C68.453 9.42216 68.3666 9.14096 68.3438 9.00716Z" fill="#191847"/>
<path fill-rule="evenodd" clip-rule="evenodd" d="M50.6094 63.0181L79.0045 110.263L100.293 150.205H104.878L69.2093 63.0181L50.6094 63.0181Z" fill="#DCAE92"/>
<path fill-rule="evenodd" clip-rule="evenodd" d="M97.4889 148.361C97.0614 149.497 96.8477 150.347 96.8477 150.911C96.8477 151.597 96.9625 152.597 97.1921 153.913C97.9915 153.913 105.176 153.913 118.745 153.913C119.305 152.07 118.982 151.075 117.775 150.928C116.569 150.782 115.566 150.649 114.768 150.53L104.75 146.086C104.557 146 104.332 146.086 104.246 146.278C104.244 146.282 104.243 146.285 104.241 146.288L103.597 147.843C102.48 148.361 101.573 148.621 100.874 148.621C100.307 148.621 99.523 148.393 98.5231 147.937L98.5231 147.937C98.1394 147.762 97.6858 147.929 97.5099 148.311C97.5023 148.328 97.4953 148.344 97.4889 148.361Z" fill="#E4E4E4"/>
<path fill-rule="evenodd" clip-rule="evenodd" d="M94.3803 143.809L103.223 141.147C99.3488 129.62 94.6004 116.936 88.9778 103.093C83.3553 89.2508 77.3168 75.8924 70.8625 63.0181H45.8877C53.0635 79.3035 60.6708 94.1009 68.7096 107.41C76.7484 120.72 85.3053 132.853 94.3803 143.809Z" fill="#DB2721"/>
<path fill-rule="evenodd" clip-rule="evenodd" d="M48.7433 63.0181C46.0633 79.6204 40.8944 100.832 40.4066 101.486C40.0813 101.923 28.3739 105.827 5.28418 113.199L6.27466 117.223C33.8091 113.27 48.3174 110.202 49.7995 108.021C52.0228 104.749 63.1237 78.9012 67.4234 63.0181H48.7433Z" fill="#EAC7A8"/>
<path fill-rule="evenodd" clip-rule="evenodd" d="M13.4004 109.721L15.145 116.202C35.7392 118 48.3576 116.701 53.0005 112.305C57.6433 107.91 62.9347 91.4808 68.8748 63.0181H45.0598C41.2963 86.3252 39.1923 98.4679 38.7477 99.4463C38.3031 100.425 29.854 103.85 13.4004 109.721Z" fill="#FF4133"/>
<path fill-rule="evenodd" clip-rule="evenodd" d="M6.40696 111.521C5.21027 111.298 4.33335 111.236 3.77621 111.333C3.09859 111.452 2.12976 111.737 0.869738 112.19C1.00897 112.974 2.26028 120.017 4.62367 133.32C6.54202 133.551 7.46869 133.062 7.4037 131.853C7.3387 130.645 7.29519 129.639 7.27317 128.836L9.91992 118.246C9.97084 118.043 9.84634 117.836 9.64182 117.785C9.63832 117.784 9.63481 117.783 9.63129 117.782L7.98314 117.42C7.27604 116.414 6.86167 115.569 6.74002 114.885C6.64119 114.328 6.73005 113.521 7.00662 112.461L7.00663 112.462C7.11276 112.055 6.8681 111.639 6.46015 111.533C6.44257 111.528 6.42483 111.524 6.40696 111.521Z" fill="#E4E4E4"/>
<path fill-rule="evenodd" clip-rule="evenodd" d="M35.4417 58.4617L43.4273 58.493C38.4965 74.3344 35.8346 82.7398 35.4417 83.7091C34.5574 85.89 36.4286 89.2115 37.2288 90.9965C34.6226 92.1571 34.9003 87.8588 31.6126 89.3811C28.6118 90.7705 26.3291 93.288 22.8622 91.159C22.4359 90.8972 21.9688 89.9117 23.0974 89.1415C25.909 87.2228 29.9608 83.8647 30.5083 82.7593C31.2548 81.252 32.8993 73.1528 35.4417 58.4617ZM83.4901 56.9795L94.3152 67.4895C97.4649 68.8266 100.046 70.303 102.057 71.9188C102.51 72.4619 103.002 73.5025 100.874 73.0369C98.7452 72.5712 96.4851 72.1767 96.0851 72.8656C95.685 73.5545 96.8638 74.6102 96.1245 75.5119C95.6316 76.113 93.9738 74.201 91.1513 69.776L79.8947 63.171L83.4901 56.9795Z" fill="#EAC7A8"/>
<path fill-rule="evenodd" clip-rule="evenodd" d="M58.1357 25.1129L61.44 24.5488C67.1291 38.6928 77.0616 51.5444 91.2376 63.1036L80.5255 76.0557C66.3512 59.5969 57.6141 42.616 58.1357 25.1129Z" fill="#191847"/>
<path fill-rule="evenodd" clip-rule="evenodd" d="M43.7305 66.4408H73.1549C66.3379 49.9447 62.9295 35.9315 62.9295 24.4011L54.0536 23.085C47.0779 34.2504 45.108 47.9973 43.7305 66.4408Z" fill="#DDE3E9"/>
<path fill-rule="evenodd" clip-rule="evenodd" d="M54.4493 23.085C55.1425 23.1087 56.1985 23.1515 57.6171 23.2134L59.7619 29.3133C59.9887 36.7506 61.3136 51.7386 63.7364 74.2775L44.4481 74.2773C44.4987 75.834 44.582 77.4053 44.6982 78.9911H30.3564C32.5017 54.9035 40.336 36.2681 53.8593 23.085L53.8662 23.0914L53.8699 23.085H54.4493Z" fill="#2F3676"/>
<path fill-rule="evenodd" clip-rule="evenodd" d="M49.8453 74.4272L44.4531 74.4269C44.217 67.4458 44.64 60.7568 45.7221 54.3599C46.2712 64.0632 47.6456 70.7523 49.8453 74.4272Z" fill="black" fill-opacity="0.1"/>
<path fill-rule="evenodd" clip-rule="evenodd" d="M48.7412 62.6378L58.2522 58.2373V62.6378H48.7412Z" fill="white" fill-opacity="0.2"/>
</g>
<defs>
<clipPath id="clip0">
<rect width="120" height="153.913" fill="white"/>
</clipPath>
</defs>
</svg>
