<?xml version="1.0" encoding="utf-8"?>
<!-- Generator: Avocode 2.4.5 - http://avocode.com -->
<svg height="19" width="14" xmlns:xlink="http://www.w3.org/1999/xlink" xmlns="http://www.w3.org/2000/svg" viewBox="0 0 14 19">
    <path fill="#ffffff" fill-rule="evenodd" d="M 5.73 17.45 C 6.43 18.31 7.57 18.31 8.27 17.45 C 8.27 17.45 14 10.87 14 7 C 14 3.13 10.87 0 7 0 C 3.13 0 0 3.13 0 7 C 0 10.87 5.73 17.45 5.73 17.45 Z M 7 10 C 8.66 10 10 8.66 10 7 C 10 5.34 8.66 4 7 4 C 5.34 4 4 5.34 4 7 C 4 8.66 5.34 10 7 10 Z M 7 10" />
    <path fill="#ffffff" fill-rule="evenodd" d="M 5.73 17.45 C 6.43 18.31 7.57 18.31 8.27 17.45 C 8.27 17.45 14 10.87 14 7 C 14 3.13 10.87 0 7 0 C 3.13 0 0 3.13 0 7 C 0 10.87 5.73 17.45 5.73 17.45 Z M 7 10 C 8.66 10 10 8.66 10 7 C 10 5.34 8.66 4 7 4 C 5.34 4 4 5.34 4 7 C 4 8.66 5.34 10 7 10 Z M 7 10" />
</svg>