<?xml version="1.0" encoding="utf-8"?>
<!-- Generator: Avocode 2.4.5 - http://avocode.com -->
<svg height="17" width="19" xmlns:xlink="http://www.w3.org/1999/xlink" xmlns="http://www.w3.org/2000/svg" viewBox="0 0 19 17">
    <path fill="#ffffff" fill-rule="evenodd" d="M 0.5 7.99 C 0.5 6.89 1.39 6 2.5 6 L 16.5 6 C 17.61 6 18.5 6.9 18.5 7.99 L 18.5 15.01 C 18.5 16.11 17.61 17 16.5 17 L 2.5 17 C 1.39 17 0.5 16.1 0.5 15.01 L 0.5 7.99 Z M 0.5 7.99" />
    <path stroke-linejoin="miter" stroke-linecap="butt" stroke-width="2" stroke="#ffffff" fill="none" fill-rule="evenodd" d="M 5.5 5 L 5.5 3 L 5.5 3 C 5.5 1.9 6.1 1 6.84 1 L 12.16 1 C 12.9 1 13.5 1.89 13.5 3 L 13.5 5" />
</svg>