<?xml version="1.0" encoding="UTF-8" standalone="no"?>
<svg width="15px" height="16px" viewBox="0 0 15 16" version="1.1" xmlns="http://www.w3.org/2000/svg" xmlns:xlink="http://www.w3.org/1999/xlink" xmlns:sketch="http://www.bohemiancoding.com/sketch/ns">
    <!-- Generator: Sketch 3.4.4 (17249) - http://www.bohemiancoding.com/sketch -->
    <title>Rectangle 103</title>
    <desc>Created with Sketch.</desc>
    <defs></defs>
    <g id="Page-1" stroke="none" stroke-width="1" fill="none" fill-rule="evenodd" sketch:type="MSPage">
        <g id="Artboard-2" sketch:type="MSArtboardGroup" transform="translate(-648.000000, -1485.000000)" fill="#ffffff">
            <g id="Feautured-jobs" sketch:type="MSLayerGroup" transform="translate(118.000000, 1365.000000)">
                <g id="Group-+-Group-Copy-4-+-Group-Copy-5" transform="translate(0.000000, 60.000000)" sketch:type="MSShapeGroup">
                    <g id="Group-Copy-6">
                        <g id="New-York,-NY-+-28-Dec-2016-+-Rectangle-25" transform="translate(214.000000, 52.000000)">
                            <g id="28-Dec-2016-+-Rectangle-103" transform="translate(316.000000, 0.000000)">
                                <path d="M0,13 L15,13 L15,22.007983 C15,23.1081436 14.1066027,24 13.0081158,24 L1.99188419,24 C0.891796927,24 0,23.0998238 0,22.007983 L0,13 Z M6,16.5 C6,15.6715729 6.66579723,15 7.5,15 C8.32842712,15 9,15.6657972 9,16.5 C9,17.3284271 8.33420277,18 7.5,18 C6.67157288,18 6,17.3342028 6,16.5 Z M6,20.5 C6,19.6715729 6.66579723,19 7.5,19 C8.32842712,19 9,19.6657972 9,20.5 C9,21.3284271 8.33420277,22 7.5,22 C6.67157288,22 6,21.3342028 6,20.5 Z M2,20.5 C2,19.6715729 2.66579723,19 3.5,19 C4.32842712,19 5,19.6657972 5,20.5 C5,21.3284271 4.33420277,22 3.5,22 C2.67157288,22 2,21.3342028 2,20.5 Z M10,16.5 C10,15.6715729 10.6657972,15 11.5,15 C12.3284271,15 13,15.6657972 13,16.5 C13,17.3284271 12.3342028,18 11.5,18 C10.6715729,18 10,17.3342028 10,16.5 Z M10,20.5 C10,19.6715729 10.6657972,19 11.5,19 C12.3284271,19 13,19.6657972 13,20.5 C13,21.3284271 12.3342028,22 11.5,22 C10.6715729,22 10,21.3342028 10,20.5 Z M0,10 C0,8.8954305 0.893397331,8 1.99188419,8 L13.0081158,8 C14.1082031,8 15,8.88772964 15,10 L15,12 L0,12 L0,10 Z" id="Rectangle-103"></path>
                            </g>
                        </g>
                    </g>
                </g>
            </g>
        </g>
    </g>
</svg>